<mxfile host="app.diagrams.net" agent="Mozilla/5.0 (Windows NT 10.0; Win64; x64) AppleWebKit/537.36 (KHTML, like Gecko) Chrome/131.0.0.0 Safari/537.36 Edg/131.0.0.0" version="24.8.6">
  <diagram name="第 1 页" id="IkmMO6KevHVtfv6XxaZU">
    <mxGraphModel dx="1554" dy="827" grid="1" gridSize="10" guides="1" tooltips="1" connect="1" arrows="1" fold="1" page="1" pageScale="1" pageWidth="827" pageHeight="1169" math="1" shadow="0">
      <root>
        <mxCell id="0" />
        <mxCell id="1" parent="0" />
        <mxCell id="avWhvrWlLQZWeO5Rh4e9-57" value="" style="rounded=0;whiteSpace=wrap;html=1;fillColor=#f5f5f5;fontColor=#333333;strokeColor=#666666;strokeWidth=0;shadow=1;" vertex="1" parent="1">
          <mxGeometry x="173" y="640" width="505" height="240" as="geometry" />
        </mxCell>
        <mxCell id="avWhvrWlLQZWeO5Rh4e9-28" value="" style="rounded=1;whiteSpace=wrap;html=1;dashed=1;" vertex="1" parent="1">
          <mxGeometry x="450" y="429" width="330" height="60" as="geometry" />
        </mxCell>
        <mxCell id="avWhvrWlLQZWeO5Rh4e9-27" value="" style="rounded=1;whiteSpace=wrap;html=1;dashed=1;" vertex="1" parent="1">
          <mxGeometry x="450" y="510" width="330" height="60" as="geometry" />
        </mxCell>
        <mxCell id="avWhvrWlLQZWeO5Rh4e9-13" value="" style="rounded=1;whiteSpace=wrap;html=1;dashed=1;" vertex="1" parent="1">
          <mxGeometry x="120" y="510" width="280" height="60" as="geometry" />
        </mxCell>
        <mxCell id="avWhvrWlLQZWeO5Rh4e9-4" value="" style="rounded=1;whiteSpace=wrap;html=1;dashed=1;" vertex="1" parent="1">
          <mxGeometry x="120" y="430" width="280" height="60" as="geometry" />
        </mxCell>
        <mxCell id="avWhvrWlLQZWeO5Rh4e9-5" value="" style="rounded=1;whiteSpace=wrap;html=1;strokeWidth=0;fillColor=#dae8fc;strokeColor=#6c8ebf;" vertex="1" parent="1">
          <mxGeometry x="220" y="435" width="90" height="50" as="geometry" />
        </mxCell>
        <mxCell id="avWhvrWlLQZWeO5Rh4e9-1" value="&lt;font style=&quot;font-size: 18px;&quot;&gt;$$i_{1}$$&lt;/font&gt;" style="ellipse;whiteSpace=wrap;html=1;aspect=fixed;strokeWidth=0;fillColor=#fff2cc;strokeColor=#d6b656;" vertex="1" parent="1">
          <mxGeometry x="260" y="440" width="40" height="40" as="geometry" />
        </mxCell>
        <mxCell id="avWhvrWlLQZWeO5Rh4e9-6" value="&lt;font style=&quot;font-size: 18px;&quot;&gt;$$p_{1}$$&lt;/font&gt;" style="text;strokeColor=none;align=center;fillColor=none;html=1;verticalAlign=middle;whiteSpace=wrap;rounded=0;" vertex="1" parent="1">
          <mxGeometry x="210" y="430" width="60" height="30" as="geometry" />
        </mxCell>
        <mxCell id="avWhvrWlLQZWeO5Rh4e9-9" value="" style="rounded=1;whiteSpace=wrap;html=1;strokeWidth=0;fillColor=#e1d5e7;strokeColor=#9673a6;" vertex="1" parent="1">
          <mxGeometry x="160" y="515" width="150" height="50" as="geometry" />
        </mxCell>
        <mxCell id="avWhvrWlLQZWeO5Rh4e9-8" value="&lt;font style=&quot;font-size: 18px;&quot;&gt;$$i_{1}$$&lt;/font&gt;" style="ellipse;whiteSpace=wrap;html=1;aspect=fixed;strokeWidth=0;fillColor=#fff2cc;strokeColor=#d6b656;" vertex="1" parent="1">
          <mxGeometry x="200" y="520" width="40" height="40" as="geometry" />
        </mxCell>
        <mxCell id="avWhvrWlLQZWeO5Rh4e9-2" value="&lt;font style=&quot;font-size: 18px;&quot;&gt;$$i_{2}$$&lt;/font&gt;" style="ellipse;whiteSpace=wrap;html=1;aspect=fixed;strokeColor=#b85450;strokeWidth=0;align=center;verticalAlign=middle;fontFamily=Helvetica;fontSize=12;fillColor=#f8cecc;" vertex="1" parent="1">
          <mxGeometry x="260" y="520" width="40" height="40" as="geometry" />
        </mxCell>
        <mxCell id="avWhvrWlLQZWeO5Rh4e9-10" value="&lt;font style=&quot;font-size: 18px;&quot;&gt;$$p_{2}$$&lt;/font&gt;" style="text;strokeColor=none;align=center;fillColor=none;html=1;verticalAlign=middle;whiteSpace=wrap;rounded=0;" vertex="1" parent="1">
          <mxGeometry x="150" y="510" width="60" height="30" as="geometry" />
        </mxCell>
        <mxCell id="avWhvrWlLQZWeO5Rh4e9-11" value="&lt;font style=&quot;font-size: 18px;&quot;&gt;$$i_{1}$$&lt;/font&gt;" style="ellipse;whiteSpace=wrap;html=1;aspect=fixed;strokeWidth=0;fillColor=#fff2cc;strokeColor=#d6b656;" vertex="1" parent="1">
          <mxGeometry x="340" y="520" width="40" height="40" as="geometry" />
        </mxCell>
        <mxCell id="avWhvrWlLQZWeO5Rh4e9-12" value="&lt;font style=&quot;font-size: 18px;&quot;&gt;$$i_{2}$$&lt;/font&gt;" style="ellipse;whiteSpace=wrap;html=1;aspect=fixed;strokeColor=#b85450;strokeWidth=0;align=center;verticalAlign=middle;fontFamily=Helvetica;fontSize=12;fillColor=#f8cecc;" vertex="1" parent="1">
          <mxGeometry x="340" y="440" width="40" height="40" as="geometry" />
        </mxCell>
        <mxCell id="avWhvrWlLQZWeO5Rh4e9-14" value="&lt;font style=&quot;font-size: 18px;&quot;&gt;$$s_{1}$$&lt;/font&gt;" style="text;strokeColor=none;align=center;fillColor=none;html=1;verticalAlign=middle;whiteSpace=wrap;rounded=0;" vertex="1" parent="1">
          <mxGeometry x="106" y="427" width="60" height="30" as="geometry" />
        </mxCell>
        <mxCell id="avWhvrWlLQZWeO5Rh4e9-15" value="&lt;font style=&quot;font-size: 18px;&quot;&gt;$$s_{2}$$&lt;/font&gt;" style="text;strokeColor=none;align=center;fillColor=none;html=1;verticalAlign=middle;whiteSpace=wrap;rounded=0;" vertex="1" parent="1">
          <mxGeometry x="107" y="505" width="60" height="30" as="geometry" />
        </mxCell>
        <mxCell id="avWhvrWlLQZWeO5Rh4e9-16" value="" style="rounded=1;whiteSpace=wrap;html=1;strokeWidth=0;fillColor=#d5e8d4;strokeColor=#82b366;" vertex="1" parent="1">
          <mxGeometry x="480" y="435" width="210" height="50" as="geometry" />
        </mxCell>
        <mxCell id="avWhvrWlLQZWeO5Rh4e9-17" value="&lt;font style=&quot;font-size: 18px;&quot;&gt;$$i_{1}$$&lt;/font&gt;" style="ellipse;whiteSpace=wrap;html=1;aspect=fixed;strokeWidth=0;fillColor=#fff2cc;strokeColor=#d6b656;" vertex="1" parent="1">
          <mxGeometry x="582" y="440" width="40" height="40" as="geometry" />
        </mxCell>
        <mxCell id="avWhvrWlLQZWeO5Rh4e9-18" value="&lt;font style=&quot;font-size: 18px;&quot;&gt;$$i_{2}$$&lt;/font&gt;" style="ellipse;whiteSpace=wrap;html=1;aspect=fixed;strokeColor=#b85450;strokeWidth=0;align=center;verticalAlign=middle;fontFamily=Helvetica;fontSize=12;fillColor=#f8cecc;" vertex="1" parent="1">
          <mxGeometry x="522" y="440" width="40" height="40" as="geometry" />
        </mxCell>
        <mxCell id="avWhvrWlLQZWeO5Rh4e9-19" value="&lt;font style=&quot;font-size: 18px;&quot;&gt;$$p_{3}$$&lt;/font&gt;" style="text;strokeColor=none;align=center;fillColor=none;html=1;verticalAlign=middle;whiteSpace=wrap;rounded=0;" vertex="1" parent="1">
          <mxGeometry x="470" y="430" width="60" height="30" as="geometry" />
        </mxCell>
        <mxCell id="avWhvrWlLQZWeO5Rh4e9-3" value="&lt;font style=&quot;font-size: 18px;&quot;&gt;$$i_{3}$$&lt;/font&gt;" style="ellipse;whiteSpace=wrap;html=1;aspect=fixed;strokeColor=#9673a6;strokeWidth=0;align=center;verticalAlign=middle;fontFamily=Helvetica;fontSize=12;fillColor=#e1d5e7;" vertex="1" parent="1">
          <mxGeometry x="640" y="440" width="40" height="40" as="geometry" />
        </mxCell>
        <mxCell id="avWhvrWlLQZWeO5Rh4e9-21" value="" style="rounded=1;whiteSpace=wrap;html=1;strokeWidth=0;fillColor=#ffe6cc;strokeColor=#d79b00;" vertex="1" parent="1">
          <mxGeometry x="538" y="515" width="150" height="50" as="geometry" />
        </mxCell>
        <mxCell id="avWhvrWlLQZWeO5Rh4e9-22" value="&lt;font style=&quot;font-size: 18px;&quot;&gt;$$i_{1}$$&lt;/font&gt;" style="ellipse;whiteSpace=wrap;html=1;aspect=fixed;strokeWidth=0;fillColor=#fff2cc;strokeColor=#d6b656;" vertex="1" parent="1">
          <mxGeometry x="578" y="520" width="40" height="40" as="geometry" />
        </mxCell>
        <mxCell id="avWhvrWlLQZWeO5Rh4e9-23" value="&lt;font style=&quot;font-size: 18px;&quot;&gt;$$i_{2}$$&lt;/font&gt;" style="ellipse;whiteSpace=wrap;html=1;aspect=fixed;strokeColor=#b85450;strokeWidth=0;align=center;verticalAlign=middle;fontFamily=Helvetica;fontSize=12;fillColor=#f8cecc;" vertex="1" parent="1">
          <mxGeometry x="638" y="520" width="40" height="40" as="geometry" />
        </mxCell>
        <mxCell id="avWhvrWlLQZWeO5Rh4e9-24" value="&lt;font style=&quot;font-size: 18px;&quot;&gt;$$p_{2}$$&lt;/font&gt;" style="text;strokeColor=none;align=center;fillColor=none;html=1;verticalAlign=middle;whiteSpace=wrap;rounded=0;" vertex="1" parent="1">
          <mxGeometry x="526" y="511" width="60" height="30" as="geometry" />
        </mxCell>
        <mxCell id="avWhvrWlLQZWeO5Rh4e9-25" value="&lt;font style=&quot;font-size: 18px;&quot;&gt;$$i_{2}$$&lt;/font&gt;" style="ellipse;whiteSpace=wrap;html=1;aspect=fixed;strokeColor=#b85450;strokeWidth=0;align=center;verticalAlign=middle;fontFamily=Helvetica;fontSize=12;fillColor=#f8cecc;" vertex="1" parent="1">
          <mxGeometry x="719" y="440" width="40" height="40" as="geometry" />
        </mxCell>
        <mxCell id="avWhvrWlLQZWeO5Rh4e9-26" value="&lt;font style=&quot;font-size: 18px;&quot;&gt;$$i_{2}$$&lt;/font&gt;" style="ellipse;whiteSpace=wrap;html=1;aspect=fixed;strokeColor=#b85450;strokeWidth=0;align=center;verticalAlign=middle;fontFamily=Helvetica;fontSize=12;fillColor=#f8cecc;" vertex="1" parent="1">
          <mxGeometry x="719" y="520" width="40" height="40" as="geometry" />
        </mxCell>
        <mxCell id="avWhvrWlLQZWeO5Rh4e9-29" value="&lt;font style=&quot;font-size: 18px;&quot;&gt;$$s_{3}$$&lt;/font&gt;" style="text;strokeColor=none;align=center;fillColor=none;html=1;verticalAlign=middle;whiteSpace=wrap;rounded=0;" vertex="1" parent="1">
          <mxGeometry x="433" y="427" width="60" height="30" as="geometry" />
        </mxCell>
        <mxCell id="avWhvrWlLQZWeO5Rh4e9-30" value="&lt;font style=&quot;font-size: 18px;&quot;&gt;$$s_{4}$$&lt;/font&gt;" style="text;strokeColor=none;align=center;fillColor=none;html=1;verticalAlign=middle;whiteSpace=wrap;rounded=0;" vertex="1" parent="1">
          <mxGeometry x="433" y="505" width="60" height="30" as="geometry" />
        </mxCell>
        <mxCell id="avWhvrWlLQZWeO5Rh4e9-31" value="" style="endArrow=none;dashed=1;html=1;dashPattern=1 3;strokeWidth=2;rounded=0;" edge="1" parent="1">
          <mxGeometry width="50" height="50" relative="1" as="geometry">
            <mxPoint x="326" y="590" as="sourcePoint" />
            <mxPoint x="326" y="410" as="targetPoint" />
          </mxGeometry>
        </mxCell>
        <mxCell id="avWhvrWlLQZWeO5Rh4e9-32" value="&lt;font style=&quot;font-size: 18px;&quot;&gt;&lt;b&gt;Prefix&lt;/b&gt;&lt;/font&gt;" style="text;strokeColor=none;align=center;fillColor=none;html=1;verticalAlign=middle;whiteSpace=wrap;rounded=0;" vertex="1" parent="1">
          <mxGeometry x="190" y="390" width="60" height="30" as="geometry" />
        </mxCell>
        <mxCell id="avWhvrWlLQZWeO5Rh4e9-33" value="&lt;font style=&quot;font-size: 18px;&quot;&gt;&lt;b&gt;Target&lt;/b&gt;&lt;/font&gt;" style="text;strokeColor=none;align=center;fillColor=none;html=1;verticalAlign=middle;whiteSpace=wrap;rounded=0;" vertex="1" parent="1">
          <mxGeometry x="330" y="390" width="60" height="30" as="geometry" />
        </mxCell>
        <mxCell id="avWhvrWlLQZWeO5Rh4e9-34" value="&lt;font style=&quot;font-size: 18px;&quot;&gt;&lt;b&gt;Prefix&lt;/b&gt;&lt;/font&gt;" style="text;strokeColor=none;align=center;fillColor=none;html=1;verticalAlign=middle;whiteSpace=wrap;rounded=0;" vertex="1" parent="1">
          <mxGeometry x="568" y="390" width="60" height="30" as="geometry" />
        </mxCell>
        <mxCell id="avWhvrWlLQZWeO5Rh4e9-35" value="&lt;font style=&quot;font-size: 18px;&quot;&gt;&lt;b&gt;Target&lt;/b&gt;&lt;/font&gt;" style="text;strokeColor=none;align=center;fillColor=none;html=1;verticalAlign=middle;whiteSpace=wrap;rounded=0;" vertex="1" parent="1">
          <mxGeometry x="709" y="390" width="60" height="30" as="geometry" />
        </mxCell>
        <mxCell id="avWhvrWlLQZWeO5Rh4e9-36" value="" style="endArrow=none;dashed=1;html=1;rounded=0;dashPattern=1 3;strokeColor=default;strokeWidth=2;align=center;verticalAlign=middle;fontFamily=Helvetica;fontSize=11;fontColor=default;labelBackgroundColor=default;" edge="1" parent="1">
          <mxGeometry width="50" height="50" relative="1" as="geometry">
            <mxPoint x="706" y="590" as="sourcePoint" />
            <mxPoint x="706" y="410" as="targetPoint" />
          </mxGeometry>
        </mxCell>
        <mxCell id="avWhvrWlLQZWeO5Rh4e9-38" value="" style="edgeStyle=none;orthogonalLoop=1;jettySize=auto;html=1;rounded=0;strokeWidth=3;" edge="1" parent="1">
          <mxGeometry width="80" relative="1" as="geometry">
            <mxPoint x="430" y="580" as="sourcePoint" />
            <mxPoint x="430" y="630" as="targetPoint" />
            <Array as="points" />
          </mxGeometry>
        </mxCell>
        <mxCell id="avWhvrWlLQZWeO5Rh4e9-53" style="rounded=0;orthogonalLoop=1;jettySize=auto;html=1;exitX=0;exitY=1;exitDx=0;exitDy=0;entryX=0.5;entryY=0;entryDx=0;entryDy=0;startArrow=none;startFill=0;endArrow=none;endFill=0;strokeWidth=2;strokeColor=#999999;" edge="1" parent="1" source="avWhvrWlLQZWeO5Rh4e9-39" target="avWhvrWlLQZWeO5Rh4e9-50">
          <mxGeometry relative="1" as="geometry" />
        </mxCell>
        <mxCell id="avWhvrWlLQZWeO5Rh4e9-55" style="rounded=0;orthogonalLoop=1;jettySize=auto;html=1;exitX=1;exitY=1;exitDx=0;exitDy=0;entryX=0.5;entryY=0;entryDx=0;entryDy=0;strokeColor=#999999;strokeWidth=2;align=center;verticalAlign=middle;fontFamily=Helvetica;fontSize=11;fontColor=default;labelBackgroundColor=default;startArrow=none;startFill=0;endArrow=none;endFill=0;" edge="1" parent="1" source="avWhvrWlLQZWeO5Rh4e9-39" target="avWhvrWlLQZWeO5Rh4e9-45">
          <mxGeometry relative="1" as="geometry" />
        </mxCell>
        <mxCell id="avWhvrWlLQZWeO5Rh4e9-39" value="&lt;font style=&quot;font-size: 18px;&quot;&gt;$$i_{2}$$&lt;/font&gt;" style="ellipse;whiteSpace=wrap;html=1;aspect=fixed;strokeColor=#b85450;strokeWidth=0;align=center;verticalAlign=middle;fontFamily=Helvetica;fontSize=12;fillColor=#f8cecc;" vertex="1" parent="1">
          <mxGeometry x="320" y="670" width="40" height="40" as="geometry" />
        </mxCell>
        <mxCell id="avWhvrWlLQZWeO5Rh4e9-40" value="" style="rounded=1;whiteSpace=wrap;html=1;strokeWidth=0;fillColor=#d5e8d4;strokeColor=#82b366;" vertex="1" parent="1">
          <mxGeometry x="437" y="710" width="210" height="50" as="geometry" />
        </mxCell>
        <mxCell id="avWhvrWlLQZWeO5Rh4e9-41" value="&lt;font style=&quot;font-size: 18px;&quot;&gt;$$i_{1}$$&lt;/font&gt;" style="ellipse;whiteSpace=wrap;html=1;aspect=fixed;strokeWidth=0;fillColor=#fff2cc;strokeColor=#d6b656;" vertex="1" parent="1">
          <mxGeometry x="539" y="715" width="40" height="40" as="geometry" />
        </mxCell>
        <mxCell id="avWhvrWlLQZWeO5Rh4e9-42" value="&lt;font style=&quot;font-size: 18px;&quot;&gt;$$i_{2}$$&lt;/font&gt;" style="ellipse;whiteSpace=wrap;html=1;aspect=fixed;strokeColor=#b85450;strokeWidth=0;align=center;verticalAlign=middle;fontFamily=Helvetica;fontSize=12;fillColor=#f8cecc;" vertex="1" parent="1">
          <mxGeometry x="479" y="715" width="40" height="40" as="geometry" />
        </mxCell>
        <mxCell id="avWhvrWlLQZWeO5Rh4e9-43" value="&lt;font style=&quot;font-size: 18px;&quot;&gt;$$i_{3}$$&lt;/font&gt;" style="ellipse;whiteSpace=wrap;html=1;aspect=fixed;strokeColor=#9673a6;strokeWidth=0;align=center;verticalAlign=middle;fontFamily=Helvetica;fontSize=12;fillColor=#e1d5e7;" vertex="1" parent="1">
          <mxGeometry x="597" y="715" width="40" height="40" as="geometry" />
        </mxCell>
        <mxCell id="avWhvrWlLQZWeO5Rh4e9-44" value="&lt;font style=&quot;font-size: 18px;&quot;&gt;$$p_{3}$$&lt;/font&gt;" style="text;strokeColor=none;align=center;fillColor=none;html=1;verticalAlign=middle;whiteSpace=wrap;rounded=0;" vertex="1" parent="1">
          <mxGeometry x="430" y="700" width="60" height="30" as="geometry" />
        </mxCell>
        <mxCell id="avWhvrWlLQZWeO5Rh4e9-56" style="rounded=0;orthogonalLoop=1;jettySize=auto;html=1;exitX=1;exitY=0.5;exitDx=0;exitDy=0;strokeColor=#999999;strokeWidth=2;align=center;verticalAlign=middle;fontFamily=Helvetica;fontSize=11;fontColor=default;labelBackgroundColor=default;startArrow=none;startFill=0;endArrow=none;endFill=0;" edge="1" parent="1" source="avWhvrWlLQZWeO5Rh4e9-45" target="avWhvrWlLQZWeO5Rh4e9-49">
          <mxGeometry relative="1" as="geometry" />
        </mxCell>
        <mxCell id="avWhvrWlLQZWeO5Rh4e9-45" value="" style="rounded=1;whiteSpace=wrap;html=1;strokeWidth=0;fillColor=#dae8fc;strokeColor=#6c8ebf;" vertex="1" parent="1">
          <mxGeometry x="330" y="785" width="150" height="50" as="geometry" />
        </mxCell>
        <mxCell id="avWhvrWlLQZWeO5Rh4e9-46" value="&lt;font style=&quot;font-size: 18px;&quot;&gt;$$i_{1}$$&lt;/font&gt;" style="ellipse;whiteSpace=wrap;html=1;aspect=fixed;strokeWidth=0;fillColor=#fff2cc;strokeColor=#d6b656;" vertex="1" parent="1">
          <mxGeometry x="370" y="790" width="40" height="40" as="geometry" />
        </mxCell>
        <mxCell id="avWhvrWlLQZWeO5Rh4e9-47" value="&lt;font style=&quot;font-size: 18px;&quot;&gt;$$i_{2}$$&lt;/font&gt;" style="ellipse;whiteSpace=wrap;html=1;aspect=fixed;strokeColor=#b85450;strokeWidth=0;align=center;verticalAlign=middle;fontFamily=Helvetica;fontSize=12;fillColor=#f8cecc;" vertex="1" parent="1">
          <mxGeometry x="430" y="790" width="40" height="40" as="geometry" />
        </mxCell>
        <mxCell id="avWhvrWlLQZWeO5Rh4e9-48" value="&lt;font style=&quot;font-size: 18px;&quot;&gt;$$p_{2}$$&lt;/font&gt;" style="text;strokeColor=none;align=center;fillColor=none;html=1;verticalAlign=middle;whiteSpace=wrap;rounded=0;" vertex="1" parent="1">
          <mxGeometry x="320" y="780" width="60" height="30" as="geometry" />
        </mxCell>
        <mxCell id="avWhvrWlLQZWeO5Rh4e9-49" value="&lt;font style=&quot;font-size: 18px;&quot;&gt;$$i_{1}$$&lt;/font&gt;" style="ellipse;whiteSpace=wrap;html=1;aspect=fixed;strokeWidth=0;fillColor=#fff2cc;strokeColor=#d6b656;" vertex="1" parent="1">
          <mxGeometry x="538" y="810" width="40" height="40" as="geometry" />
        </mxCell>
        <mxCell id="avWhvrWlLQZWeO5Rh4e9-50" value="" style="rounded=1;whiteSpace=wrap;html=1;strokeWidth=0;fillColor=#dae8fc;strokeColor=#6c8ebf;" vertex="1" parent="1">
          <mxGeometry x="200" y="730" width="90" height="50" as="geometry" />
        </mxCell>
        <mxCell id="avWhvrWlLQZWeO5Rh4e9-51" value="&lt;font style=&quot;font-size: 18px;&quot;&gt;$$i_{1}$$&lt;/font&gt;" style="ellipse;whiteSpace=wrap;html=1;aspect=fixed;strokeWidth=0;fillColor=#fff2cc;strokeColor=#d6b656;" vertex="1" parent="1">
          <mxGeometry x="240" y="735" width="40" height="40" as="geometry" />
        </mxCell>
        <mxCell id="avWhvrWlLQZWeO5Rh4e9-52" value="&lt;font style=&quot;font-size: 18px;&quot;&gt;$$p_{1}$$&lt;/font&gt;" style="text;strokeColor=none;align=center;fillColor=none;html=1;verticalAlign=middle;whiteSpace=wrap;rounded=0;" vertex="1" parent="1">
          <mxGeometry x="190" y="725" width="60" height="30" as="geometry" />
        </mxCell>
        <mxCell id="avWhvrWlLQZWeO5Rh4e9-54" style="rounded=0;orthogonalLoop=1;jettySize=auto;html=1;exitX=1;exitY=0.5;exitDx=0;exitDy=0;entryX=0.133;entryY=1.047;entryDx=0;entryDy=0;entryPerimeter=0;strokeColor=#999999;strokeWidth=2;align=center;verticalAlign=middle;fontFamily=Helvetica;fontSize=11;fontColor=default;labelBackgroundColor=default;startArrow=none;startFill=0;endArrow=none;endFill=0;" edge="1" parent="1" source="avWhvrWlLQZWeO5Rh4e9-39" target="avWhvrWlLQZWeO5Rh4e9-44">
          <mxGeometry relative="1" as="geometry" />
        </mxCell>
        <mxCell id="avWhvrWlLQZWeO5Rh4e9-58" value="&lt;font style=&quot;font-size: 18px;&quot;&gt;&lt;b&gt;Prefix-Target Graph&lt;/b&gt;&lt;/font&gt;" style="text;strokeColor=none;align=center;fillColor=none;html=1;verticalAlign=middle;whiteSpace=wrap;rounded=0;" vertex="1" parent="1">
          <mxGeometry x="175" y="640" width="180" height="30" as="geometry" />
        </mxCell>
      </root>
    </mxGraphModel>
  </diagram>
</mxfile>
